<svg width="71" height="71" viewBox="0 0 71 71" fill="none" xmlns="http://www.w3.org/2000/svg">
<circle cx="35.5" cy="35.5" r="35.5" fill="white"/>
<path d="M1.64863e-07 35.5C-1.42045e-07 42.5212 2.08204 49.3848 5.98283 55.2227C9.88362 61.0607 15.428 65.6108 21.9147 68.2977C28.4015 70.9846 35.5394 71.6876 42.4257 70.3179C49.312 68.9481 55.6375 65.567 60.6023 60.6023C65.567 55.6375 68.9481 49.312 70.3179 42.4257C71.6876 35.5394 70.9846 28.4015 68.2977 21.9147C65.6108 15.428 61.0607 9.88362 55.2227 5.98283C49.3848 2.08204 42.5212 -1.24485e-06 35.5 -1.55175e-06C26.0848 -1.96331e-06 17.0552 3.74016 10.3977 10.3977C7.10123 13.6942 4.48632 17.6077 2.70227 21.9147C0.918232 26.2218 3.68642e-07 30.8381 1.64863e-07 35.5V35.5ZM42.103 22.4005L52.256 33.0505C52.4062 33.2045 52.5266 33.3851 52.611 33.583C52.7617 33.75 52.8819 33.9423 52.966 34.151C53.1538 34.5759 53.2508 35.0354 53.2508 35.5C53.2508 35.9646 53.1538 36.4241 52.966 36.849C52.797 37.2848 52.5437 37.6829 52.2205 38.0205L41.5705 48.6705C40.902 49.339 39.9954 49.7145 39.05 49.7145C38.1046 49.7145 37.198 49.339 36.5295 48.6705C35.861 48.002 35.4855 47.0954 35.4855 46.15C35.4855 45.2046 35.861 44.298 36.5295 43.6295L41.1445 39.05L21.3 39.05C20.3585 39.05 19.4555 38.676 18.7898 38.0102C18.124 37.3445 17.75 36.4415 17.75 35.5C17.75 34.5585 18.124 33.6555 18.7898 32.9898C19.4555 32.324 20.3585 31.95 21.3 31.95L41.393 31.95L36.9555 27.2995C36.3058 26.6169 35.954 25.7042 35.9773 24.7621C36.0006 23.8201 36.3971 22.9259 37.0797 22.2762C37.7623 21.6266 38.6751 21.2747 39.6171 21.298C40.5591 21.3213 41.4533 21.7179 42.103 22.4005V22.4005Z" fill="#888AB0"/>
</svg>
