<svg aria-hidden="true" style="position: absolute; width: 0; height: 0; overflow: hidden;" version="1.1"
    xmlns="http://www.w3.org/2000/svg" xmlns:xlink="http://www.w3.org/1999/xlink">
    <defs>
        <symbol id="icon-projeco-logo" viewBox="0 0 143 32">
            <path fill="#fff" style="fill: var(--color1, #fff)"
                d="M7.14 18.31l-1.385 2.606v8.756h-4.48v-28.509h4.48v12.422l5.865-12.422h4.48l-6.231 12.707 6.231 15.802h-4.602l-4.358-11.363zM22.424 23.116c0 1.032 0.21 1.758 0.631 2.179s0.984 0.631 1.69 0.631 1.269-0.21 1.69-0.631c0.421-0.421 0.631-1.147 0.631-2.179v-15.395c0-1.032-0.21-1.758-0.631-2.179s-0.984-0.631-1.69-0.631c-0.706 0-1.269 0.21-1.69 0.631s-0.631 1.147-0.631 2.179v15.395zM17.944 8.006c0-2.308 0.584-4.080 1.751-5.315s2.851-1.853 5.050-1.853c2.199 0 3.883 0.618 5.050 1.853s1.751 3.007 1.751 5.315v14.825c0 2.308-0.584 4.080-1.751 5.315s-2.851 1.853-5.050 1.853-3.883-0.618-5.050-1.853c-1.168-1.235-1.751-3.007-1.751-5.315v-14.825zM38.889 9.024v20.649h-4.032v-28.509h5.62l4.602 17.065v-17.065h3.991v28.509h-4.602l-5.58-20.649zM52.179 8.006c0-2.308 0.55-4.080 1.649-5.315s2.749-1.853 4.948-1.853c2.199 0 3.849 0.618 4.948 1.853s1.649 3.007 1.649 5.315v0.896h-4.236v-1.181c0-1.032-0.197-1.758-0.591-2.179s-0.943-0.631-1.649-0.631c-0.706 0-1.256 0.21-1.65 0.631s-0.59 1.147-0.59 2.179c0 0.977 0.217 1.839 0.652 2.586s0.978 1.453 1.629 2.118c0.652 0.665 1.351 1.33 2.098 1.996s1.446 1.392 2.097 2.179c0.652 0.787 1.195 1.683 1.629 2.688s0.652 2.186 0.652 3.543c0 2.308-0.563 4.080-1.69 5.315s-2.79 1.853-4.989 1.853c-2.199 0-3.862-0.618-4.989-1.853s-1.69-3.007-1.69-5.315v-1.751h4.236v2.036c0 1.032 0.21 1.751 0.631 2.158s0.984 0.611 1.69 0.611c0.706 0 1.269-0.204 1.69-0.611s0.631-1.127 0.631-2.158c0-0.978-0.217-1.84-0.652-2.586s-0.977-1.453-1.629-2.118c-0.652-0.665-1.351-1.331-2.097-1.996s-1.446-1.392-2.098-2.179c-0.652-0.787-1.195-1.683-1.629-2.688s-0.652-2.186-0.652-3.543zM67.137 1.164h13.847v4.073h-4.684v24.436h-4.48v-24.436h-4.684v-4.073zM92.766 29.673c-0.054-0.19-0.109-0.367-0.163-0.53s-0.102-0.366-0.142-0.611c-0.041-0.244-0.068-0.557-0.082-0.937s-0.020-0.855-0.020-1.426v-4.48c0-1.33-0.231-2.267-0.692-2.81s-1.208-0.815-2.24-0.815h-1.548v11.607h-4.48v-28.509h6.761c2.335 0 4.025 0.543 5.070 1.629s1.568 2.729 1.568 4.928v2.24c0 2.932-0.977 4.86-2.932 5.783 1.14 0.462 1.921 1.215 2.342 2.26s0.631 2.315 0.631 3.808v4.399c0 0.706 0.027 1.324 0.082 1.853s0.19 1.066 0.407 1.609h-4.562zM87.879 5.236v8.756h1.751c0.842 0 1.5-0.217 1.975-0.652s0.713-1.222 0.713-2.362v-2.81c0-1.032-0.183-1.778-0.55-2.24s-0.944-0.692-1.731-0.692h-2.159zM104.507 1.164v21.993c0 1.032 0.21 1.751 0.631 2.159s0.984 0.611 1.69 0.611c0.706 0 1.269-0.204 1.69-0.611s0.631-1.127 0.631-2.159v-21.993h4.236v21.708c0 2.308-0.563 4.080-1.69 5.315s-2.79 1.853-4.989 1.853c-2.199 0-3.862-0.618-4.989-1.853s-1.69-3.007-1.69-5.315v-21.708h4.48zM129.141 1.164h13.847v4.073h-4.684v24.436h-4.48v-24.436h-4.684v-4.073z">
            </path>
            <path fill="#00a4e5" style="fill: var(--color2, #00a4e5)"
                d="M115.514 15.979l11.636-14.545v29.091l-11.636-14.546z"></path>
        </symbol>
        <symbol id="icon-projeco-logo-black" viewBox="0 0 144 32">
            <path fill="#171819" style="fill: var(--color1, #171819)"
                d="M7.526 18.31l-1.385 2.606v8.756h-4.48v-28.509h4.48v12.422l5.865-12.422h4.48l-6.231 12.707 6.231 15.802h-4.602l-4.358-11.363zM22.811 23.116c0 1.032 0.21 1.758 0.631 2.179s0.984 0.631 1.69 0.631 1.269-0.21 1.69-0.631c0.421-0.421 0.631-1.147 0.631-2.179v-15.395c0-1.032-0.21-1.758-0.631-2.179s-0.984-0.631-1.69-0.631-1.269 0.21-1.69 0.631c-0.421 0.421-0.631 1.147-0.631 2.179v15.395zM18.331 8.006c0-2.308 0.584-4.080 1.751-5.315s2.851-1.853 5.050-1.853c2.199 0 3.883 0.618 5.050 1.853s1.751 3.007 1.751 5.315v14.825c0 2.308-0.584 4.079-1.751 5.315s-2.851 1.853-5.050 1.853-3.883-0.618-5.050-1.853c-1.167-1.235-1.751-3.007-1.751-5.315v-14.825zM39.276 9.024v20.649h-4.032v-28.509h5.62l4.602 17.065v-17.065h3.991v28.509h-4.602l-5.58-20.649zM52.565 8.006c0-2.308 0.55-4.080 1.649-5.315s2.749-1.853 4.948-1.853 3.849 0.618 4.948 1.853c1.1 1.235 1.649 3.007 1.649 5.315v0.896h-4.236v-1.181c0-1.032-0.197-1.758-0.591-2.179s-0.943-0.631-1.649-0.631-1.256 0.21-1.649 0.631c-0.394 0.421-0.591 1.147-0.591 2.179 0 0.977 0.217 1.839 0.652 2.586s0.977 1.453 1.629 2.118c0.652 0.665 1.351 1.33 2.098 1.996s1.446 1.392 2.097 2.179c0.652 0.787 1.195 1.683 1.629 2.688s0.652 2.186 0.652 3.543c0 2.308-0.563 4.079-1.69 5.315s-2.79 1.853-4.989 1.853-3.862-0.618-4.989-1.853c-1.127-1.235-1.69-3.007-1.69-5.315v-1.751h4.236v2.036c0 1.032 0.211 1.751 0.631 2.159s0.984 0.611 1.69 0.611 1.269-0.204 1.69-0.611c0.421-0.407 0.631-1.127 0.631-2.159 0-0.977-0.217-1.839-0.652-2.586s-0.977-1.453-1.629-2.118c-0.652-0.665-1.351-1.33-2.097-1.996s-1.446-1.392-2.098-2.179c-0.652-0.787-1.195-1.683-1.629-2.688s-0.652-2.186-0.652-3.543zM67.523 1.164h13.847v4.073h-4.684v24.436h-4.48v-24.436h-4.684v-4.073zM93.153 29.673c-0.054-0.19-0.109-0.367-0.163-0.529s-0.102-0.367-0.143-0.611c-0.041-0.244-0.068-0.557-0.081-0.937s-0.020-0.855-0.020-1.425v-4.48c0-1.331-0.231-2.267-0.692-2.81s-1.208-0.815-2.24-0.815h-1.548v11.607h-4.48v-28.509h6.761c2.335 0 4.025 0.543 5.071 1.629s1.568 2.729 1.568 4.928v2.24c0 2.932-0.977 4.86-2.932 5.783 1.14 0.462 1.921 1.215 2.342 2.26s0.631 2.315 0.631 3.808v4.399c0 0.706 0.027 1.324 0.081 1.853s0.19 1.066 0.407 1.609h-4.561zM88.265 5.236v8.756h1.751c0.842 0 1.5-0.217 1.975-0.652s0.713-1.222 0.713-2.362v-2.81c0-1.032-0.183-1.778-0.55-2.24s-0.943-0.692-1.731-0.692h-2.159zM104.894 1.164v21.993c0 1.032 0.21 1.751 0.631 2.159s0.984 0.611 1.69 0.611c0.706 0 1.269-0.204 1.69-0.611s0.631-1.127 0.631-2.159v-21.993h4.236v21.708c0 2.308-0.563 4.079-1.69 5.315s-2.79 1.853-4.989 1.853-3.862-0.618-4.989-1.853c-1.127-1.235-1.69-3.007-1.69-5.315v-21.708h4.48zM129.528 1.164h13.847v4.073h-4.684v24.436h-4.48v-24.436h-4.684v-4.073z">
            </path>
            <path fill="#00a4e5" style="fill: var(--color2, #00a4e5)"
                d="M115.9 15.979l11.636-14.545v29.091l-11.636-14.545z"></path>
        </symbol>
        <!-- Social Icons -->
        <symbol id="icon-instagram" viewBox="0 0 32 32">
            <path
                d="M31.969 9.408c-0.075-1.7-0.35-2.869-0.744-3.882-0.406-1.075-1.031-2.038-1.85-2.838-0.8-0.813-1.769-1.444-2.832-1.844-1.019-0.394-2.182-0.669-3.882-0.744-1.713-0.081-2.257-0.1-6.601-0.1s-4.888 0.019-6.595 0.094c-1.7 0.075-2.869 0.35-3.882 0.744-1.075 0.406-2.038 1.031-2.838 1.85-0.813 0.8-1.444 1.769-1.844 2.832-0.394 1.019-0.669 2.182-0.744 3.882-0.081 1.713-0.1 2.257-0.1 6.601s0.019 4.888 0.094 6.595c0.075 1.7 0.35 2.869 0.744 3.882 0.406 1.075 1.038 2.038 1.85 2.838 0.8 0.813 1.769 1.444 2.832 1.844 1.019 0.394 2.182 0.669 3.882 0.744 1.706 0.075 2.25 0.094 6.595 0.094s4.888-0.018 6.595-0.094c1.7-0.075 2.869-0.35 3.882-0.744 2.151-0.831 3.851-2.532 4.682-4.682 0.394-1.019 0.669-2.182 0.744-3.882 0.075-1.707 0.094-2.251 0.094-6.595s-0.006-4.888-0.081-6.595zM29.087 22.473c-0.069 1.563-0.331 2.407-0.55 2.969-0.538 1.394-1.644 2.501-3.038 3.038-0.563 0.219-1.413 0.481-2.969 0.55-1.688 0.075-2.194 0.094-6.464 0.094s-4.782-0.018-6.464-0.094c-1.563-0.069-2.407-0.331-2.969-0.55-0.694-0.256-1.325-0.663-1.838-1.194-0.531-0.519-0.938-1.144-1.194-1.838-0.219-0.563-0.481-1.413-0.55-2.969-0.075-1.688-0.094-2.194-0.094-6.464s0.019-4.782 0.094-6.464c0.069-1.563 0.331-2.407 0.55-2.969 0.256-0.694 0.663-1.325 1.2-1.838 0.519-0.531 1.144-0.938 1.838-1.194 0.563-0.219 1.413-0.481 2.969-0.55 1.688-0.075 2.194-0.094 6.464-0.094 4.276 0 4.782 0.019 6.464 0.094 1.563 0.069 2.407 0.331 2.969 0.55 0.694 0.256 1.325 0.662 1.838 1.194 0.531 0.519 0.938 1.144 1.194 1.838 0.219 0.563 0.481 1.413 0.55 2.969 0.075 1.688 0.094 2.194 0.094 6.464s-0.019 4.77-0.094 6.457z">
            </path>
            <path
                d="M16.059 7.782c-4.538 0-8.22 3.682-8.22 8.22s3.682 8.22 8.22 8.22c4.538 0 8.22-3.682 8.22-8.22s-3.682-8.22-8.22-8.22zM16.059 21.335c-2.944 0-5.332-2.388-5.332-5.332s2.388-5.332 5.332-5.332c2.944 0 5.332 2.388 5.332 5.332s-2.388 5.332-5.332 5.332z">
            </path>
            <path
                d="M26.524 7.457c0 1.060-0.859 1.919-1.919 1.919s-1.919-0.859-1.919-1.919c0-1.060 0.859-1.919 1.919-1.919s1.919 0.859 1.919 1.919z">
            </path>
        </symbol>
        <symbol id="icon-twitter" viewBox="0 0 32 32">
            <path
                d="M32 6.078c-1.19 0.522-2.458 0.868-3.78 1.036 1.36-0.812 2.398-2.088 2.886-3.626-1.268 0.756-2.668 1.29-4.16 1.588-1.204-1.282-2.92-2.076-4.792-2.076-3.632 0-6.556 2.948-6.556 6.562 0 0.52 0.044 1.020 0.152 1.496-5.454-0.266-10.28-2.88-13.522-6.862-0.566 0.982-0.898 2.106-0.898 3.316 0 2.272 1.17 4.286 2.914 5.452-1.054-0.020-2.088-0.326-2.964-0.808 0 0.020 0 0.046 0 0.072 0 3.188 2.274 5.836 5.256 6.446-0.534 0.146-1.116 0.216-1.72 0.216-0.42 0-0.844-0.024-1.242-0.112 0.85 2.598 3.262 4.508 6.13 4.57-2.232 1.746-5.066 2.798-8.134 2.798-0.538 0-1.054-0.024-1.57-0.090 2.906 1.874 6.35 2.944 10.064 2.944 12.072 0 18.672-10 18.672-18.668 0-0.29-0.010-0.57-0.024-0.848 1.302-0.924 2.396-2.078 3.288-3.406z">
            </path>
        </symbol>
        <symbol id="icon-facebook" viewBox="0 0 32 32">
            <path
                d="M21.329 5.313h2.921v-5.088c-0.504-0.069-2.237-0.225-4.256-0.225-4.212 0-7.097 2.649-7.097 7.519v4.481h-4.648v5.688h4.648v14.312h5.699v-14.311h4.46l0.708-5.688h-5.169v-3.919c0.001-1.644 0.444-2.769 2.735-2.769z">
            </path>
        </symbol>
        <symbol id="icon-linkedin" viewBox="0 0 32 32">
            <path
                d="M31.992 32v-0.001h0.008v-11.736c0-5.741-1.236-10.164-7.948-10.164-3.227 0-5.392 1.771-6.276 3.449h-0.093v-2.913h-6.364v21.364h6.627v-10.579c0-2.785 0.528-5.479 3.977-5.479 3.399 0 3.449 3.179 3.449 5.657v10.401h6.62z">
            </path>
            <path d="M0.528 10.636h6.635v21.364h-6.635v-21.364z"></path>
            <path
                d="M3.843-0c-2.121 0-3.843 1.721-3.843 3.843s1.721 3.879 3.843 3.879c2.121 0 3.843-1.757 3.843-3.879-0.001-2.121-1.723-3.843-3.843-3.843v0z">
            </path>
        </symbol>
        <symbol id="icon-google" viewBox="0 0 32 32">
            <path
                d="M16.319 13.713v5.487h9.075c-0.369 2.356-2.744 6.9-9.075 6.9-5.463 0-9.919-4.525-9.919-10.1s4.456-10.1 9.919-10.1c3.106 0 5.188 1.325 6.375 2.469l4.344-4.181c-2.788-2.612-6.4-4.188-10.719-4.188-8.844 0-16 7.156-16 16s7.156 16 16 16c9.231 0 15.363-6.494 15.363-15.631 0-1.050-0.113-1.85-0.25-2.65l-15.113-0.006z">
            </path>
        </symbol>
        <symbol id="icon-facebook-official" viewBox="0 0 24 28">
            <path
                d="M22.672 2c0.734 0 1.328 0.594 1.328 1.328v21.344c0 0.734-0.594 1.328-1.328 1.328h-6.109v-9.297h3.109l0.469-3.625h-3.578v-2.312c0-1.047 0.281-1.75 1.797-1.75l1.906-0.016v-3.234c-0.328-0.047-1.469-0.141-2.781-0.141-2.766 0-4.672 1.687-4.672 4.781v2.672h-3.125v3.625h3.125v9.297h-11.484c-0.734 0-1.328-0.594-1.328-1.328v-21.344c0-0.734 0.594-1.328 1.328-1.328h21.344z">
            </path>
        </symbol>
    </defs>
</svg>